# xmcd
#
# Track frame offsets: 
#        150
#        21770
#        43240
#        73382
#        95177
#        119705
#        139202
#        161262
#        184767
#        207462
#        226499
#
# Disc length: 3285 seconds
#
# Revision: 0
# Processed by: cddbd v1.5.2PL0 Copyright (c) Steve Scherf et al.
# Submitted via: ExactAudioCopy v1.0b3
#
DISCID=ab0cd30b
DTITLE=Giao Linh - No va Toi
DYEAR=1994
DGENRE=
TTITLE0=Ngo hon qua dem
TTITLE1=Mau tim pensee
TTITLE2=Mot chuyen xe hoa
TTITLE3=Ky niem khon nguoi
TTITLE4=Xin hay quen toi
TTITLE5=Chuyen dem mua
TTITLE6=Hue xua
TTITLE7=No va toi
TTITLE8=Gia biet truong xua
TTITLE9=Mua mua di qua
TTITLE10=Hoa mot ten nguoi hai ho
EXTD=
EXTT0=
EXTT1=
EXTT2=
EXTT3=
EXTT4=
EXTT5=
EXTT6=
EXTT7=
EXTT8=
EXTT9=
EXTT10=
PLAYORDER=
